<svg width="1345" height="528" viewBox="0 0 1345 528" fill="none" xmlns="http://www.w3.org/2000/svg">
<rect width="0" height="0" fill="white"/>
<path d="M859.949 261.269L411 365L421.609 301.423L427.752 299.91L870 191L859.949 261.269Z" fill="#DAE8FF"/>
<path d="M845.949 247.673L397 352L407.609 288.058L413.752 286.536L856 177L845.949 247.673Z" fill="#A1C4FD"/>
<path d="M903.24 176.93C916.89 184.87 925.65 196.81 933.17 210.93C934.803 208.848 936.289 206.656 937.62 204.37C946.06 187.37 950.26 169.55 948.1 150.55C944.96 122.86 931.8 102.43 905.38 91.29C890.751 85.0434 874.885 82.2282 859 83.06C856 83.21 853.09 84.06 850.08 84.27C856.82 78.27 861.85 76.78 881.83 74.1C861.83 45.89 821.01 24.1 772.63 48.1C775.49 44.8 778.01 41.1 781.27 38.25C799.49 22.31 820.48 18.07 844.08 22.71C872.44 28.29 889.74 46.55 902.08 70.97C904.54 75.85 907.62 78.56 913.14 80.65C932.01 87.77 948.27 98.81 957.78 117.49C963.55 129.047 966.721 141.727 967.07 154.64C968.16 183.17 960.64 209.24 943.81 232.34C940.88 236.34 940.96 240.24 941.01 244.45C941.26 265.1 934.01 282.92 920.01 297.82C910.398 308.353 897.369 315.147 883.23 317C877.67 317.74 871.88 317.5 866.56 319C863.49 319.86 861.13 323.27 858.56 325.45C856.13 323.62 853.39 320.45 849.99 319.33C846.59 318.21 842.45 319.08 838.15 319.08C849.86 311.34 859.53 301.54 865.78 289.08C872.15 276.35 873.07 262.45 872.42 248.39C877.76 265.67 876.94 282.91 872.02 300.77C879.16 300.96 885.4 298.6 891.11 295.11C913.59 281.41 929.6 249.53 923.41 221.66C920.25 207.46 914.05 194.86 906.63 182.66C905.48 180.72 904.37 178.82 903.24 176.93Z" fill="black"/>
<path d="M458.87 316C461.52 300.83 464.03 286.47 466.68 271.33L449.56 275.14C447 289 444.41 302.61 442.11 316.28C442.021 317.5 441.515 318.653 440.678 319.544C439.84 320.436 438.722 321.014 437.51 321.18C431.09 322.64 424.66 324.05 417.51 325.64C418.69 318.37 419.71 311.58 420.91 304.82C422.67 294.92 424.54 285.04 426.42 275.16C429.87 257 434 238.93 436.54 220.64C437.54 213.64 440.29 212.32 446.11 211.69C450.93 211.17 455.62 209.4 461.79 207.82C459.05 223.17 456.55 237.21 453.92 252C459.16 250.82 463.75 249.77 468.35 248.75C472.95 247.73 472.24 243.38 472.85 240.4C475.2 228.93 476.97 217.33 479.13 205.82C479.318 205.224 479.643 204.68 480.078 204.232C480.514 203.784 481.049 203.444 481.64 203.24C488.49 201.58 495.4 200.16 502.64 198.6C502.907 199.73 503.018 200.89 502.97 202.05C501.19 211.31 499.22 220.53 497.49 229.79C495.82 238.72 494.49 247.72 492.82 256.65C490.34 269.96 487.68 283.24 485.15 296.53C484.578 298.95 484.269 301.424 484.23 303.91C484.43 309.65 480.86 311.38 476.16 312.32C470.69 313.36 465.29 314.61 458.87 316Z" fill="black"/>
<path d="M832.71 229.76L808.87 235.18C810.87 224.92 812.92 215.76 814.52 206.54C816.12 197.32 817.43 187.95 818.52 178.62C818.73 176.92 817.45 175.03 816.86 173.23C815.16 174.05 812.78 174.43 811.86 175.79C809.54 179.3 806.94 183.06 806.09 187.06C802.68 203.2 799.95 219.48 796.77 235.66C796.526 236.392 796.118 237.059 795.577 237.61C795.037 238.161 794.377 238.582 793.65 238.84C787 240.55 780.27 241.89 773.18 243.45C773.02 241.286 773.037 239.112 773.23 236.95C774.58 229.14 776.17 221.37 777.63 213.57C779.48 203.69 781.26 193.79 783.13 183.91C785.68 170.46 788.3 157.01 790.87 143.56C790.964 142.733 791.007 141.902 791 141.07C791.7 129.45 792.28 128.74 803.49 126.14C807.74 125.14 812.01 124.24 816.75 123.14C816 130.43 815.69 137.22 814.51 143.85C813.4 150.07 811.37 156.12 809.79 162.1C815.93 158.35 821.39 154.81 827.05 151.63C834.28 147.56 843.34 151.2 843.41 161.95C843.47 171.79 841.63 181.68 840.15 191.48C838.61 201.59 836.53 211.62 834.63 221.67C834.14 224.29 833.41 226.83 832.71 229.76Z" fill="black"/>
<path d="M697.88 261L673.21 266.57L668.89 238.67L667.89 238.17C666.89 240.17 665.54 242.05 665.06 244.17C663.547 250.438 662.355 256.78 661.49 263.17C660.87 268.26 658.72 270.69 653.49 271.36C648.26 272.03 642.93 273.69 636.89 275.1C637.89 268.72 638.77 262.79 639.82 256.89C641.58 246.963 643.4 237.057 645.28 227.17C648.78 208.69 652.36 190.23 655.86 171.74C656.283 169.459 656.537 167.149 656.62 164.83C656.79 160.83 659.02 159.1 662.75 158.41C668.41 157.41 674.01 156.02 680.99 154.51C677.27 175.37 673.69 195.39 670.11 215.41L671.04 215.84C673.04 212.13 675.04 208.46 676.94 204.7C679.47 199.6 682.02 194.5 684.26 189.27C685.77 185.73 688.48 184.27 691.94 183.55C698.18 182.19 704.4 180.73 711.78 179.05C707.42 186.55 703.64 193.17 699.78 199.73C696.307 205.51 692.773 211.267 689.18 217C686.39 221.46 688.82 225.73 689.78 229.88C692.17 240.06 695 250.17 697.88 261Z" fill="black"/>
<path d="M718.67 118.56C713.33 110.29 707.1 103 699 97.29C690.292 91.095 680.366 86.8238 669.88 84.76C654.08 81.59 638.37 82.25 622.57 85.51C604.683 89.1268 587.78 96.5367 573 107.24C560.062 116.729 548.976 128.51 540.29 142C540.91 137.6 540.87 133 542.29 128.85C546.57 116.24 552.12 104.58 562.06 94.85C571.919 84.9578 583.932 77.4797 597.16 73C613.16 67.66 629.53 64.88 646.46 67.91C650.356 68.6922 654.309 69.1637 658.28 69.32C660.116 69.1077 661.802 68.2071 663 66.8C673.28 55.5 685.07 46.38 700 42.48C714.49 38.69 728.65 40.61 741.88 47.59C755.98 55.02 767.42 65.71 777.05 78.59C771.93 75.66 766.84 72.65 761.67 69.8C743 59.53 723.24 54.34 702.04 59.17C692.29 61.4 683.57 66.29 678.24 74.79C686.95 80.9 695.83 86.13 703.49 92.79C711.375 99.3687 716.739 108.474 718.67 118.56V118.56Z" fill="black"/>
<path d="M446 400.56C446 407.95 446.12 414.68 445.88 421.4C445.88 422.5 444.42 423.85 443.3 424.58C427.733 434.801 409.482 440.168 390.86 440C386.03 440 381.16 440.39 376.38 439.93C357.04 438.08 342.38 447.06 329.38 459.93C319.828 469.29 312.693 480.831 308.59 493.56C307.44 497.13 307.04 500.94 306.29 504.64H304.67C304.49 494.64 303.59 484.56 304.36 474.64C304.95 466.87 307.03 459.08 309.47 451.64C313.44 439.55 322.33 431 332 423.45C347.45 411.39 364.92 405.34 384.71 408.45C391.15 409.45 397.35 411.97 403.79 413.06C418.67 415.58 431.66 410.7 443.43 401.84C444.262 401.365 445.12 400.938 446 400.56V400.56Z" fill="black"/>
<path d="M310.27 422.27C309.55 414.35 309.02 406.41 308.08 398.52C306.78 387.75 302.74 377.8 297.71 368.33C290.84 355.41 283.4 342.79 276.52 329.87C271.04 319.57 267.52 308.5 267.94 296.73C268.8 274 281.12 254.28 304.27 244.84C320.83 238.09 338 236.91 355.46 237.32C357.416 237.526 359.359 237.84 361.28 238.26C346.69 241.83 333.69 245.25 321.9 252.42C300.77 265.26 293.8 287.42 298.51 309.57C300.91 320.9 305.6 331.73 308.59 343C310.92 351.77 313.36 360.76 313.73 369.73C314.3 383.32 313.22 396.99 312.6 410.61C312.42 414.52 311.38 418.38 310.73 422.27H310.27Z" fill="black"/>
<path d="M550.49 412C532.75 412 520.58 400.09 519.01 381.23C517.09 358.06 532.53 339.31 556.1 335.93C568.6 334.13 580.1 335.93 587.98 346.56C596.88 358.56 597.81 372.23 592.34 385.96C585.77 402.43 569.89 412 550.49 412ZM555.1 390.15C564.53 390.15 571.85 382.23 571.78 372.06C571.73 363.18 566.58 357.06 559.16 357.06C549.82 357.01 542.55 364.94 542.5 375.22C542.46 384 547.6 390.13 555.1 390.15V390.15Z" fill="black"/>
<path d="M774.26 167.24C773.15 173.63 772.26 179.81 771 185.92C767.21 204.21 763.31 222.49 762.87 241.27C762.79 244.55 762.12 246.47 758.41 247.06C753.24 247.88 748.17 249.35 742.22 250.74C742.06 247.38 741.92 244.4 741.76 241C737.81 245.08 734.45 249.09 730.55 252.48C720.94 260.81 709.55 258.02 705.62 246.48C704.664 243.809 704.161 240.997 704.13 238.16C704.28 219.86 708.71 202.71 720.22 188.22C733.9 171 752.58 165.55 774.26 167.24ZM748.6 188.07C743.21 187.18 740.35 189.22 738.2 192.32C730.2 203.88 727.2 216.85 728 230.76C728.22 234.48 731.27 236.03 734.25 233.76C736.49 232.06 738.91 229.56 739.58 226.99C742.85 214.26 745.57 201.38 748.6 188.07Z" fill="black"/>
<path d="M534.84 135.39C529.46 134.91 524.09 134.39 518.71 133.97C503.167 132.743 487.53 133.537 472.19 136.33C460.66 138.52 449.6 142.07 440.19 149.22C436.08 152.33 432.66 156.36 428.34 160.54C441.15 167.4 453.38 172.63 463.81 181C415 163.25 371.43 171.88 332.55 206C340.86 183.08 352.75 163.33 377.75 155.79C386.26 153.23 395.29 152.18 404.22 154.79C407.89 155.86 410.68 154.37 412.76 151.54C424.33 135.85 440.22 126.72 458.76 122.45C476.93 118.27 494.97 120.56 512.58 126.32C520.16 128.79 527.67 131.47 535.22 134.06L534.84 135.39Z" fill="black"/>
<path d="M635 225.47C634.6 245.15 628.61 262.54 614.05 276.36C607.617 282.658 599.049 286.304 590.05 286.57C578.9 286.88 571.86 281.1 571.05 268.47C569.59 246.39 576.05 226.64 592.55 210.97C598.595 205.358 606.148 201.636 614.28 200.26C625.08 198.2 634.41 206 635 217.48C635.11 220.14 635 222.81 635 225.47ZM594.18 256.36C594.18 257.53 594.18 258.625 594.25 259.84C595 263 594.5 266 597.46 266.84C600.5 267.5 603.704 265.317 604.5 262.5C606.5 258 607.864 253.685 608.81 249.01C610.266 241.037 611.185 232.976 611.56 224.88C611.78 220.24 607.98 218.55 604.65 221.31C603.452 222.455 602.476 223.811 601.77 225.31C596.6 235 594.83 245.55 594.18 256.36Z" fill="black"/>
<path d="M565.15 240.54C564.75 260.22 558.76 277.61 544.2 291.43C537.768 297.729 529.199 301.374 520.2 301.64C509.05 301.95 502.01 296.17 501.2 283.54C499.74 261.46 506.2 241.71 522.7 226.04C528.745 220.428 536.298 216.706 544.43 215.33C555.23 213.27 564.56 221.07 565.15 232.55C565.26 235.21 565.15 237.88 565.15 240.54ZM524.33 271.43C524.33 272.6 524.33 273.696 524.4 274.91C525.15 278.07 524.65 281.07 527.61 281.91C530.65 282.57 533.854 280.387 534.65 277.57C536.65 273.07 538.014 268.755 538.96 264.08C540.416 256.108 541.335 248.046 541.71 239.95C541.93 235.31 538.13 233.62 534.8 236.38C533.602 237.525 532.626 238.881 531.92 240.38C526.75 250.07 524.98 260.62 524.33 271.43Z" fill="black"/>
<path d="M650.59 361.57L669.52 386.57C661.19 388.3 653.65 389.99 646.04 391.3C644.95 391.49 643.1 390.15 642.34 389.01C638.55 383.35 635.07 377.48 631.34 371.77C630.5 370.49 629.13 369.54 627.29 367.77C627.29 376.37 627.05 383.6 627.4 390.77C627.57 394.38 626.52 395.77 622.96 396.33C617.41 397.16 611.96 398.51 605.74 399.79C605.42 389.89 605.1 380.46 604.82 371.03C604.43 358.03 604.18 345.09 603.62 332.14C603.49 329.05 604.28 327.62 607.37 327.04C616.37 325.36 625.28 323.34 634.28 321.68C646.37 319.46 655.73 323.32 659.49 331.8C664.13 342.27 661.13 352.87 651.4 360.41C651.092 360.768 650.82 361.157 650.59 361.57V361.57ZM626.25 354.2C631.25 352.65 636.6 353.2 638.71 347.99C639.35 346.43 638.41 342.56 637.49 342.32C633.93 341.32 630.1 341.43 626.25 341.1V354.2Z" fill="black"/>
<path d="M794.93 360.41L772.29 365.18C770.92 361.88 769.56 358.59 768.1 355.05C761.26 356.43 754.52 357.51 747.99 359.33C746.39 359.78 744.65 362.56 744.38 364.47C743.56 370.29 740.29 372.41 734.8 373.07C729.08 373.76 723.46 375.27 716.95 376.59C719.47 369.59 721.7 363.38 723.95 357.18C730.55 338.87 737.2 320.58 743.69 302.23C744.62 299.6 745.76 298.12 748.69 297.66C754.27 296.78 759.78 295.44 765.29 294.18C767.69 293.63 769.19 293.83 770.29 296.58C778.4 317.34 786.7 338.03 794.93 358.75C794.994 359.301 794.994 359.859 794.93 360.41V360.41ZM750.86 340.41L762.74 338C760.89 332.42 759.24 327.47 757.59 322.51L756.53 322.45L750.86 340.41Z" fill="black"/>
<path d="M456.75 430.77C456.43 420.84 456.11 411.41 455.83 401.98C455.44 388.98 455.12 376.05 454.67 363.09C454.59 360.77 454.46 358.83 457.44 358.26C466.91 356.48 476.32 354.33 485.84 352.87C489.794 352.29 493.823 352.47 497.71 353.4C512.8 357.05 518.49 378.48 507.71 390.18C501.27 397.18 492.76 400.04 483.83 401.5C479.45 402.21 478.46 404.07 478.76 408.03C479.12 413.021 479.213 418.029 479.04 423.03C479.04 424.28 477.82 426.32 476.82 426.57C470.39 428.12 463.88 429.31 456.75 430.77ZM478.22 385.08C480.83 384.36 483.22 383.89 485.52 383.03C488.91 381.73 491.31 379.52 490.14 375.47C488.97 371.42 485.65 371.58 482.14 371.69C477.22 371.86 477.73 375.03 477.86 378.2C477.93 380.34 478.07 382.48 478.22 385.08Z" fill="black"/>
<path d="M681.86 331.63L664.46 335V315.21L721.46 303.36C721.46 309.51 721.65 314.99 721.31 320.44C721.24 321.67 719.5 323.44 718.2 323.83C713.93 325.08 709.5 325.83 705.54 326.65V379L683.7 383.58C683.06 366.07 682.46 349 681.86 331.63Z" fill="black"/>
<path d="M801.73 358.83C801.33 346.04 800.94 334.09 800.58 322.13C800.26 311.65 800.05 301.13 799.58 290.69C799.47 288.08 800.12 286.69 802.82 286.16C809.03 285 815.2 283.69 822.23 282.27C822.81 299.64 823.38 316.64 823.96 333.92L847.13 329.24C847.43 335.95 847.71 342.32 848.02 349.24L801.73 358.83Z" fill="black"/>
<path d="M695 392.22C698.4 392.22 702.25 391.17 705.13 392.39C726.21 401.39 745.26 395.93 761.58 382.47C769.82 375.68 778.46 375.14 788.42 373.3C780.53 388.77 768.95 399.25 752.89 403.83C732.09 409.77 711.98 409.47 694.89 393.93C695 393.36 695 392.79 695 392.22Z" fill="black"/>
<path d="M530.29 419.75C518.466 425.603 505.183 427.857 492.09 426.23C491.76 426.23 491.17 426.23 491.09 426.07C490.187 422.234 489.519 418.347 489.09 414.43C489.02 413.35 490.91 411.34 492.15 411.12C499.92 409.72 507.75 408.67 515.57 407.62C516.518 407.61 517.432 407.968 518.12 408.62C522.12 412.09 525.93 415.7 530.29 419.75Z" fill="black"/>
<path d="M555.1 390.15C547.6 390.15 542.46 384.03 542.5 375.15C542.55 364.87 549.82 356.94 559.16 356.99C566.58 356.99 571.73 363.16 571.78 371.99C571.85 382.23 564.53 390.16 555.1 390.15Z" fill="white"/>
<path d="M626.25 354.2V341.1C630.1 341.43 633.93 341.36 637.49 342.32C638.41 342.56 639.35 346.43 638.71 347.99C636.6 353.16 631.28 352.65 626.25 354.2Z" fill="white"/>
<path d="M750.86 340.46L756.53 322.4L757.59 322.46C759.24 327.46 760.89 332.37 762.74 337.95L750.86 340.46Z" fill="white"/>
<path d="M478.22 385.08C478.07 382.48 477.93 380.34 477.84 378.2C477.71 375.03 477.2 371.86 482.12 371.69C485.65 371.58 488.94 371.27 490.12 375.47C491.3 379.67 488.89 381.73 485.5 383.03C483.25 383.89 480.83 384.36 478.22 385.08Z" fill="white"/>
</svg>
