<?xml version="1.0" encoding="UTF-8" standalone="no" ?>
<!DOCTYPE svg PUBLIC "-//W3C//DTD SVG 1.1//EN" "http://www.w3.org/Graphics/SVG/1.1/DTD/svg11.dtd">
<svg xmlns="http://www.w3.org/2000/svg" xmlns:xlink="http://www.w3.org/1999/xlink" version="1.1" width="640" height="640" viewBox="0 0 640 640" xml:space="preserve">
<desc>Created with Fabric.js 4.6.0</desc>
<defs>
</defs>
<g transform="matrix(1 0 0 1 320 320)" id="tJKgSOu0Sn4klLBATYVl8"  >
<filter id="SVGID_132" y="-36%" height="172%" x="-35%" width="170%" >
	<feGaussianBlur in="SourceAlpha" stdDeviation="34"></feGaussianBlur>
	<feOffset dx="4" dy="-10" result="oBlur" ></feOffset>
	<feFlood flood-color="rgb(244,1,1)" flood-opacity="1"/>
	<feComposite in2="oBlur" operator="in" />
	<feMerge>
		<feMergeNode></feMergeNode>
		<feMergeNode in="SourceGraphic"></feMergeNode>
	</feMerge>
</filter>
<g style="opacity: 0.54;filter: url(#SVGID_132);" vector-effect="non-scaling-stroke"   >
		<g transform="matrix(1 0 0 1 0 0)" id="FFahv9zbf8Zkkd6vRT0sB"  >
<path style="stroke: none; stroke-width: 1; stroke-dasharray: none; stroke-linecap: butt; stroke-dashoffset: 0; stroke-linejoin: miter; stroke-miterlimit: 4; fill: rgb(72,161,175); fill-rule: nonzero; opacity: 1;" vector-effect="non-scaling-stroke"  transform=" translate(-248.08, -248.08)" d="M 248.083 0.003 C 111.071 0.003 0 111.063 0 248.085 C 0 385.086 111.07 496.155 248.083 496.155 C 385.089 496.155 496.159 385.08599999999996 496.159 248.08499999999998 C 496.159 111.062 385.089 0.003 248.083 0.003 z" stroke-linecap="round" />
</g>
		<g transform="matrix(1 0 0 1 0 72.33)" id="nZBcSK_qiKdM9Kf8YSn30"  >
<path style="stroke: none; stroke-width: 1; stroke-dasharray: none; stroke-linecap: butt; stroke-dashoffset: 0; stroke-linejoin: miter; stroke-miterlimit: 4; fill: rgb(255,255,255); fill-rule: nonzero; opacity: 1;" vector-effect="non-scaling-stroke"  transform=" translate(-248.08, -320.41)" d="M 347.179 393.59 C 344.907 392.49199999999996 323.996 382.835 290.11199999999997 381.705 C 289.984 381.68899999999996 289.84999999999997 381.74899999999997 289.75399999999996 381.839 C 289.657 381.93 289.60099999999994 382.055 289.59599999999995 382.188 L 289.42099999999994 387.43399999999997 C 289.4119999999999 387.71 289.62799999999993 387.941 289.90399999999994 387.95 C 323.74799999999993 389.079 344.39899999999994 399.185 344.6429999999999 399.304 L 345.11299999999994 399.48699999999997 C 350.92999999999995 401.21 356.99999999999994 405.64899999999994 356.79099999999994 410.481 C 356.64699999999993 413.805 353.0319999999999 422.206 322.62799999999993 428.425 C 307.1909999999999 431.582 292.16599999999994 433.183 277.96899999999994 433.183 C 243.46499999999995 433.183 219.10299999999995 423.687 204.74299999999994 415.721 C 180.96799999999993 402.533 170.21999999999994 386.157 170.10699999999994 385.982 C 139.64199999999994 341.34000000000003 137.14799999999994 299.946 140.41899999999995 273.083 C 144.05799999999996 243.21000000000004 155.70599999999996 222.25900000000001 159.30999999999995 218.401 C 166.27699999999996 210.946 174.35599999999994 207.328 183.35199999999995 207.66500000000002 C 208.38399999999996 208.58700000000002 233.08399999999995 238.91700000000003 233.33099999999996 239.223 C 233.50399999999996 239.437 233.81899999999996 239.472 234.03399999999996 239.299 L 238.12399999999997 236.00900000000001 C 238.33899999999997 235.836 238.37299999999996 235.52100000000002 238.19999999999996 235.306 C 237.12199999999996 233.965 211.47499999999997 202.45700000000002 183.59399999999997 201.42100000000002 C 172.70599999999996 201.02100000000002 162.99499999999998 205.305 154.74399999999997 214.13400000000001 C 146.44799999999998 223.01100000000002 105.15799999999997 301.898 164.88799999999998 389.42 C 165.33899999999997 390.13 176.22599999999997 406.966 201.421 421.02500000000003 C 216.471 429.42300000000006 241.96499999999997 439.43300000000005 277.956 439.43300000000005 L 277.964 439.43300000000005 C 292.584 439.43300000000005 308.031 437.78900000000004 323.879 434.547 C 355.672 428.045 362.71900000000005 418.01700000000005 363.033 410.75100000000003 C 363.394 402.39 355.031 395.979 347.179 393.59 z" stroke-linecap="round" />
</g>
		<g transform="matrix(1 0 0 1 -34.65 172.28)" id="CEFXfNszx-tKZJx-jIEK6"  >
<path style="stroke: none; stroke-width: 1; stroke-dasharray: none; stroke-linecap: butt; stroke-dashoffset: 0; stroke-linejoin: miter; stroke-miterlimit: 4; fill: rgb(255,255,255); fill-rule: nonzero; opacity: 1;" vector-effect="non-scaling-stroke"  transform=" translate(-213.43, -420.36)" d="M 264.679 446.333 C 264.671 446.201 264.60999999999996 446.07700000000006 264.51099999999997 445.98900000000003 C 264.412 445.901 264.28 445.85900000000004 264.14899999999994 445.865 C 264.08599999999996 445.869 257.53 446.265 247.92099999999994 446.265 C 225.41399999999993 446.265 185.66299999999993 444.10699999999997 172.30999999999995 429.654 C 168.89199999999994 425.954 167.57499999999993 421.738 168.28599999999994 416.764 C 169.75499999999994 406.486 197.21899999999994 397.53700000000003 214.18499999999995 394.31100000000004 C 214.45599999999993 394.259 214.63499999999993 393.99800000000005 214.58299999999994 393.72700000000003 L 213.60399999999993 388.57000000000005 C 213.57899999999992 388.44000000000005 213.50399999999993 388.32400000000007 213.39399999999992 388.25000000000006 C 213.2839999999999 388.17500000000007 213.1469999999999 388.1460000000001 213.01899999999992 388.1720000000001 C 208.07799999999992 389.11000000000007 164.67399999999992 397.8610000000001 162.09899999999993 415.8800000000001 C 161.11899999999994 422.7360000000001 163.00999999999993 428.7980000000001 167.71899999999994 433.89600000000013 C 182.71799999999993 450.12900000000013 224.17999999999995 452.5530000000001 247.56099999999992 452.5530000000001 C 257.12999999999994 452.5530000000001 263.8109999999999 452.1490000000001 264.54099999999994 452.1030000000001 C 264.81699999999995 452.08500000000015 265.02599999999995 451.8480000000001 265.00899999999996 451.57300000000015 L 264.679 446.333 z" stroke-linecap="round" />
</g>
		<g transform="matrix(1 0 0 1 1.83 -194.18)" id="osKIb-xThJbgN2xEoBRmU"  >
<path style="stroke: none; stroke-width: 1; stroke-dasharray: none; stroke-linecap: butt; stroke-dashoffset: 0; stroke-linejoin: miter; stroke-miterlimit: 4; fill: rgb(214,52,52); fill-rule: nonzero; opacity: 1;" vector-effect="non-scaling-stroke"  transform=" translate(-249.91, -53.9)" d="M 256.142 51.199 C 261.148 48.940999999999995 263.461 44.314 263.461 42.26 L 236.358 42.26 C 236.358 44.286 238.615 48.812 243.482 51.102 C 239.024 54.522 234.745 60.013999999999996 234.745 62.604 C 234.745 66.519 265.074 66.519 265.074 62.604 C 265.074 60.038 260.563 54.625 256.142 51.199 z" stroke-linecap="round" />
</g>
		<g transform="matrix(1 0 0 1 -5.75 -194.18)" id="8URjKfosRbL2v61uAvi6o"  >
<path style="stroke: none; stroke-width: 1; stroke-dasharray: none; stroke-linecap: butt; stroke-dashoffset: 0; stroke-linejoin: miter; stroke-miterlimit: 4; fill: rgb(234,73,73); fill-rule: nonzero; opacity: 1;" vector-effect="non-scaling-stroke"  transform=" translate(-242.33, -53.9)" d="M 236.358 42.259 C 236.358 44.285 238.615 48.811 243.482 51.101 C 239.024 54.521 234.745 60.013 234.745 62.603 C 234.745 64.561 242.328 65.539 249.91 65.539 L 249.911 42.258 L 236.358 42.259 L 236.358 42.259 z" stroke-linecap="round" />
</g>
		<g transform="matrix(1 0 0 1 1.83 -84.28)" id="8HW7MnPSBOyI0111b8C3r"  >
<path style="stroke: none; stroke-width: 1; stroke-dasharray: none; stroke-linecap: butt; stroke-dashoffset: 0; stroke-linejoin: miter; stroke-miterlimit: 4; fill: rgb(237,201,47); fill-rule: nonzero; opacity: 1;" vector-effect="non-scaling-stroke"  transform=" translate(-249.91, -163.8)" d="M 278.635 57.206 L 221.18599999999998 57.206 C 221.18599999999998 60.594 227.85699999999997 68.94500000000001 242.51199999999997 71.13 C 238.42399999999998 74.556 234.74599999999998 79.44999999999999 234.74599999999998 81.85199999999999 C 234.74599999999998 83.44299999999998 239.759 84.38799999999999 245.70899999999997 84.68499999999999 C 246.34499999999997 84.71699999999998 246.545 92.737 247.09299999999996 99.46999999999998 C 243.72699999999995 100.01499999999999 241.30699999999996 101.50499999999998 241.30699999999996 103.26399999999998 C 241.30699999999996 104.12499999999999 241.88999999999996 104.91999999999999 242.87599999999995 105.57399999999998 C 239.93199999999996 107.81999999999998 238.01299999999995 111.42799999999998 238.01299999999995 115.51199999999999 C 238.01299999999995 120.25699999999999 240.59599999999995 124.36899999999999 244.37799999999996 126.43399999999998 C 242.50199999999995 127.17099999999998 241.30799999999996 128.27399999999997 241.30799999999996 129.51 C 241.30799999999996 131.004 243.05599999999995 132.304 245.64299999999997 132.99699999999999 C 241.55999999999997 135.753 238.68299999999996 143.14299999999997 238.68299999999996 157.399 C 238.68299999999996 171.302 241.41799999999998 187.823 245.34099999999995 195.54500000000002 C 241.41899999999995 199.35700000000003 238.68299999999996 207.51100000000002 238.68299999999996 214.37300000000002 C 238.68299999999996 220.514 240.87999999999997 224.062 244.15199999999996 225.77400000000003 C 244.01199999999997 226.18400000000003 243.93199999999996 226.61300000000003 243.93199999999996 227.05900000000003 C 243.93199999999996 228.01500000000001 244.27999999999997 228.90200000000002 244.87099999999995 229.65200000000002 C 242.96999999999994 230.37300000000002 241.74499999999995 231.489 241.74499999999995 232.746 C 241.74499999999995 233.869 242.72399999999996 234.87900000000002 244.28799999999995 235.596 C 242.60799999999995 236.27100000000002 241.06999999999996 237.233 239.72899999999996 238.43200000000002 L 231.97499999999997 227.05900000000003 L 226.09799999999996 232.93600000000004 L 236.87399999999997 241.79900000000004 C 235.25599999999997 244.34900000000005 234.30899999999997 247.39800000000002 234.30899999999997 250.68100000000004 C 234.30899999999997 256.759 237.53899999999996 262.04300000000006 242.30999999999997 264.81000000000006 C 238.48899999999998 265.35200000000003 235.95799999999997 266.28900000000004 235.95799999999997 267.3570000000001 C 235.95799999999997 269.0370000000001 242.20499999999998 270.3970000000001 249.91099999999997 270.3970000000001 C 257.616 270.3970000000001 263.864 269.0370000000001 263.864 267.3570000000001 C 263.864 266.2890000000001 261.332 265.3520000000001 257.51099999999997 264.81000000000006 C 262.282 262.04300000000006 265.51199999999994 256.75800000000004 265.51199999999994 250.68100000000007 C 265.51199999999994 248.15500000000006 264.93899999999996 245.77500000000006 263.94499999999994 243.64500000000007 L 268.44199999999995 239.14800000000008 C 270.602 240.32600000000008 272.59 240.5670000000001 273.58899999999994 239.56800000000007 C 274.66399999999993 238.49300000000008 274.30699999999996 236.27500000000006 272.88899999999995 233.92900000000006 C 273.13699999999994 233.77400000000006 273.37299999999993 233.59700000000007 273.58899999999994 233.38200000000006 C 275.12699999999995 231.84400000000005 275.12699999999995 229.35200000000006 273.58899999999994 227.81400000000005 C 272.05199999999996 226.27600000000004 269.55899999999997 226.27600000000004 268.02199999999993 227.81400000000005 C 267.80699999999996 228.02900000000005 267.62899999999996 228.26600000000005 267.47399999999993 228.51400000000004 C 265.12799999999993 227.09600000000003 262.9099999999999 226.74000000000004 261.8349999999999 227.81400000000005 C 260.7749999999999 228.87500000000006 261.10599999999994 231.04700000000005 262.4769999999999 233.35900000000004 L 258.59899999999993 237.23700000000002 C 257.6479999999999 236.574 256.6169999999999 236.03000000000003 255.53299999999993 235.59500000000003 C 257.09599999999995 234.87800000000001 258.0759999999999 233.86800000000002 258.0759999999999 232.74500000000003 C 258.0759999999999 231.48800000000003 256.8499999999999 230.37100000000004 254.9499999999999 229.65100000000004 C 255.5409999999999 228.90200000000004 255.8889999999999 228.01400000000004 255.8889999999999 227.05900000000003 C 255.8889999999999 226.61400000000003 255.8079999999999 226.18400000000003 255.6689999999999 225.77500000000003 C 258.9409999999999 224.06400000000002 261.1389999999999 220.51500000000004 261.1389999999999 214.37300000000005 C 261.1389999999999 207.51100000000005 258.4039999999999 199.35600000000005 254.4809999999999 195.54500000000004 C 258.4029999999999 187.82200000000003 261.1389999999999 171.30200000000005 261.1389999999999 157.39900000000006 C 261.1389999999999 143.14300000000006 258.2629999999999 135.75300000000004 254.1789999999999 132.99700000000007 C 256.7669999999999 132.30400000000006 258.5139999999999 131.00400000000008 258.5139999999999 129.51000000000008 C 258.5139999999999 128.27500000000006 257.3199999999999 127.17200000000008 255.4439999999999 126.43400000000008 C 259.2259999999999 124.36900000000009 261.8089999999999 120.25700000000009 261.8089999999999 115.51200000000009 C 261.8089999999999 111.42800000000008 259.88999999999993 107.81900000000009 256.9459999999999 105.57400000000008 C 257.9309999999999 104.92000000000009 258.5139999999999 104.12500000000009 258.5139999999999 103.26400000000008 C 258.5139999999999 101.51200000000009 256.1119999999999 100.02700000000009 252.76699999999988 99.47700000000007 C 253.2749999999999 92.76400000000008 253.43099999999987 84.71900000000008 254.03399999999988 84.68900000000008 C 260.01799999999986 84.39600000000007 265.07599999999985 83.45100000000008 265.07599999999985 81.85200000000007 C 265.07599999999985 79.46000000000008 261.15599999999984 74.59700000000008 257.04299999999984 71.17200000000008 C 271.885 69.051 278.635 60.615 278.635 57.206 z" stroke-linecap="round" />
</g>
		<g transform="matrix(1 0 0 1 -12.53 -84.28)" id="o9WuJUtfur0l1SDIFmlQ1"  >
<path style="stroke: none; stroke-width: 1; stroke-dasharray: none; stroke-linecap: butt; stroke-dashoffset: 0; stroke-linejoin: miter; stroke-miterlimit: 4; fill: rgb(239,213,101); fill-rule: nonzero; opacity: 1;" vector-effect="non-scaling-stroke"  transform=" translate(-235.55, -163.8)" d="M 221.185 57.206 C 221.185 60.594 227.856 68.94500000000001 242.511 71.13 C 238.423 74.556 234.745 79.44999999999999 234.745 81.85199999999999 C 234.745 83.44299999999998 239.758 84.38799999999999 245.708 84.68499999999999 C 246.344 84.71699999999998 246.544 92.737 247.09199999999998 99.46999999999998 C 243.72599999999997 100.01499999999999 241.30599999999998 101.50499999999998 241.30599999999998 103.26399999999998 C 241.30599999999998 104.12499999999999 241.88899999999998 104.91999999999999 242.87499999999997 105.57399999999998 C 239.93099999999998 107.81999999999998 238.01199999999997 111.42799999999998 238.01199999999997 115.51199999999999 C 238.01199999999997 120.25699999999999 240.59499999999997 124.36899999999999 244.37699999999998 126.43399999999998 C 242.50099999999998 127.17099999999998 241.307 128.27399999999997 241.307 129.51 C 241.307 131.004 243.05499999999998 132.304 245.642 132.99699999999999 C 241.559 135.753 238.682 143.14299999999997 238.682 157.399 C 238.682 171.302 241.417 187.823 245.33999999999997 195.54500000000002 C 241.41799999999998 199.35700000000003 238.682 207.51100000000002 238.682 214.37300000000002 C 238.682 220.514 240.879 224.062 244.15099999999998 225.77400000000003 C 244.011 226.18400000000003 243.93099999999998 226.61300000000003 243.93099999999998 227.05900000000003 C 243.93099999999998 228.01500000000001 244.279 228.90200000000002 244.86999999999998 229.65200000000002 C 242.96899999999997 230.37300000000002 241.74399999999997 231.489 241.74399999999997 232.746 C 241.74399999999997 233.869 242.72299999999998 234.87900000000002 244.28699999999998 235.596 C 242.60699999999997 236.27100000000002 241.069 237.233 239.72799999999998 238.43200000000002 L 231.974 227.05900000000003 L 226.09699999999998 232.93600000000004 L 236.873 241.79900000000004 C 235.255 244.34900000000005 234.308 247.39800000000002 234.308 250.68100000000004 C 234.308 256.759 237.53799999999998 262.04300000000006 242.309 264.81000000000006 C 238.488 265.35200000000003 235.957 266.28900000000004 235.957 267.3570000000001 C 235.957 269.0370000000001 242.204 270.3970000000001 249.91 270.3970000000001 L 249.91 57.206 L 221.185 57.206 z" stroke-linecap="round" />
</g>
		<g transform="matrix(1 0 0 1 20.56 201.24)" id="zBdUM5MhoEZve9yW2MnCA"  >
<path style="stroke: none; stroke-width: 1; stroke-dasharray: none; stroke-linecap: butt; stroke-dashoffset: 0; stroke-linejoin: miter; stroke-miterlimit: 4; fill: rgb(255,255,255); fill-rule: nonzero; opacity: 1;" vector-effect="non-scaling-stroke"  transform=" translate(-268.64, -449.32)" d="M 293.508 447.19 L 268.041 444.814 C 266.742 444.509 244.097 445.175 242.798 445.48 L 242.798 453.821 C 244.098 454.125 266.742 453.459 268.041 453.15500000000003 L 293.508 450.776 C 294.806 449.789 294.806 448.182 293.508 447.19 z" stroke-linecap="round" />
</g>
		<g transform="matrix(1 0 0 1 1.83 96.94)" id="FAolPRki-8nJu8LBJLG7p"  >
<path style="stroke: none; stroke-width: 1; stroke-dasharray: none; stroke-linecap: butt; stroke-dashoffset: 0; stroke-linejoin: miter; stroke-miterlimit: 4; fill: rgb(214,52,52); fill-rule: nonzero; opacity: 1;" vector-effect="non-scaling-stroke"  transform=" translate(-249.91, -345.01)" d="M 296.569 370.975 C 296.569 353.425 282.957 338.56300000000005 264.15700000000004 333.481 L 268.70000000000005 275.418 C 270.56300000000005 274.72 271.636 273.909 271.636 273.043 C 271.636 270.42900000000003 261.90900000000005 268.31 249.91000000000003 268.31 C 237.91100000000003 268.31 228.18400000000003 270.42900000000003 228.18400000000003 273.043 C 228.18400000000003 273.83 229.07100000000003 274.572 230.63000000000002 275.225 L 235.199 333.615 C 216.64000000000001 338.815 203.25 353.571 203.25 370.976 C 203.25 385.808 212.975 398.719 227.334 405.431 C 227.334 405.431 223.81 415.084 223.81 416.032 C 223.81 419.173 235.496 421.719 249.911 421.719 C 264.325 421.719 276.011 419.173 276.011 416.032 C 276.011 415.084 272.487 405.431 272.487 405.431 C 286.845 398.718 296.569 385.807 296.569 370.975 z" stroke-linecap="round" />
</g>
		<g transform="matrix(1 0 0 1 -21.5 96.94)" id="H_CStokUOe6T-ZY-BjAPE"  >
<path style="stroke: none; stroke-width: 1; stroke-dasharray: none; stroke-linecap: butt; stroke-dashoffset: 0; stroke-linejoin: miter; stroke-miterlimit: 4; fill: rgb(234,73,73); fill-rule: nonzero; opacity: 1;" vector-effect="non-scaling-stroke"  transform=" translate(-226.58, -345.01)" d="M 228.184 273.043 C 228.184 273.83 229.071 274.572 230.63 275.225 L 235.19899999999998 333.615 C 216.64 338.815 203.24999999999997 353.571 203.24999999999997 370.976 C 203.24999999999997 385.808 212.97499999999997 398.719 227.33399999999997 405.431 C 227.33399999999997 405.431 223.80999999999997 415.084 223.80999999999997 416.032 C 223.80999999999997 419.173 235.49599999999998 421.719 249.91099999999997 421.719 L 249.91099999999997 268.31 C 237.911 268.31 228.184 270.429 228.184 273.043 z" stroke-linecap="round" />
</g>
		<g transform="matrix(1 0 0 1 -31.55 121.47)" id="6S2SOorxX7Mp68k-xr2R7"  >
<path style="stroke: none; stroke-width: 1; stroke-dasharray: none; stroke-linecap: butt; stroke-dashoffset: 0; stroke-linejoin: miter; stroke-miterlimit: 4; fill: rgb(239,137,137); fill-rule: nonzero; opacity: 1;" vector-effect="non-scaling-stroke"  transform=" translate(-216.53, -369.54)" d="M 216.534 361.616 C 211.647 361.616 207.68699999999998 365.57599999999996 207.68699999999998 370.461 C 207.68699999999998 373.322 209.04999999999998 375.857 211.15599999999998 377.474 C 210.27399999999997 376.329 209.74399999999997 374.89799999999997 209.74399999999997 373.342 C 209.74399999999997 369.59299999999996 212.78399999999996 366.55199999999996 216.53399999999996 366.55199999999996 C 220.28299999999996 366.55199999999996 223.32299999999995 369.59299999999996 223.32299999999995 373.342 C 223.32299999999995 374.89799999999997 222.79299999999995 376.329 221.91199999999995 377.474 C 224.01799999999994 375.85699999999997 225.38099999999994 373.322 225.38099999999994 370.461 C 225.38 365.576 221.419 361.616 216.534 361.616 z" stroke-linecap="round" />
</g>
		<g transform="matrix(1 0 0 1 -9.3 124.17)" id="DaJmtVKzVe2p4Kh6e9e5L"  >
<path style="stroke: none; stroke-width: 1; stroke-dasharray: none; stroke-linecap: butt; stroke-dashoffset: 0; stroke-linejoin: miter; stroke-miterlimit: 4; fill: rgb(239,137,137); fill-rule: nonzero; opacity: 1;" vector-effect="non-scaling-stroke"  transform=" translate(-238.78, -372.25)" d="M 238.776 364.321 C 233.89000000000001 364.321 229.929 368.281 229.929 373.16700000000003 C 229.929 376.028 231.292 378.56300000000005 233.398 380.18 C 232.517 379.035 231.986 377.604 231.986 376.048 C 231.986 372.299 235.02599999999998 369.258 238.77599999999998 369.258 C 242.52599999999998 369.258 245.56499999999997 372.299 245.56499999999997 376.048 C 245.56499999999997 377.604 245.03599999999997 379.035 244.15399999999997 380.18 C 246.25899999999996 378.563 247.62199999999996 376.028 247.62199999999996 373.16700000000003 C 247.622 368.281 243.662 364.321 238.776 364.321 z" stroke-linecap="round" />
</g>
		<g transform="matrix(1 0 0 1 13.75 124.17)" id="mMCHBPGY550m0YSIkjG-W"  >
<path style="stroke: none; stroke-width: 1; stroke-dasharray: none; stroke-linecap: butt; stroke-dashoffset: 0; stroke-linejoin: miter; stroke-miterlimit: 4; fill: rgb(237,107,107); fill-rule: nonzero; opacity: 1;" vector-effect="non-scaling-stroke"  transform=" translate(-261.83, -372.25)" d="M 261.83 364.321 C 256.94399999999996 364.321 252.98299999999998 368.281 252.98299999999998 373.16700000000003 C 252.98299999999998 376.028 254.34599999999998 378.56300000000005 256.45099999999996 380.18 C 255.56999999999996 379.035 255.03999999999996 377.604 255.03999999999996 376.048 C 255.03999999999996 372.299 258.07899999999995 369.258 261.83 369.258 C 265.579 369.258 268.61899999999997 372.299 268.61899999999997 376.048 C 268.61899999999997 377.604 268.089 379.035 267.20799999999997 380.18 C 269.313 378.563 270.67699999999996 376.028 270.67699999999996 373.16700000000003 C 270.676 368.281 266.715 364.321 261.83 364.321 z" stroke-linecap="round" />
</g>
		<g transform="matrix(1 0 0 1 35.33 121.47)" id="pTXMY7WX7NmWdbv-FTguH"  >
<path style="stroke: none; stroke-width: 1; stroke-dasharray: none; stroke-linecap: butt; stroke-dashoffset: 0; stroke-linejoin: miter; stroke-miterlimit: 4; fill: rgb(237,107,107); fill-rule: nonzero; opacity: 1;" vector-effect="non-scaling-stroke"  transform=" translate(-283.41, -369.54)" d="M 283.406 361.616 C 278.52 361.616 274.559 365.57599999999996 274.559 370.461 C 274.559 373.322 275.922 375.857 278.028 377.474 C 277.146 376.329 276.61600000000004 374.89799999999997 276.61600000000004 373.342 C 276.61600000000004 369.59299999999996 279.65600000000006 366.55199999999996 283.40600000000006 366.55199999999996 C 287.1550000000001 366.55199999999996 290.19500000000005 369.59299999999996 290.19500000000005 373.342 C 290.19500000000005 374.89799999999997 289.66600000000005 376.329 288.7830000000001 377.474 C 290.88900000000007 375.85699999999997 292.2530000000001 373.322 292.2530000000001 370.461 C 292.253 365.576 288.292 361.616 283.406 361.616 z" stroke-linecap="round" />
</g>
</g>
</g>
</svg>